PathFileType	4	(X/Y/Z)	3_coords_data.trc
DataRate	CameraRate	NumFrames	NumMarkers	Units	OrigDataRate	OrigDataStartFrame	OrigNumFrames
30.0	30.0	7	21	m	30.0	49	58
Frame#	Time	THUMB_TIP	THUMB_IP	THUMB_MCP	THUMB_CMC	INDEX_TIP	INDEX_DIP	INDEX_PIP	INDEX_MCP	MIDDLE_TIP	MIDDLE_DIP	MIDDLE_PIP	MIDDLE_MCP	RING_TIP	RING_DIP	RING_PIP	RING_MCP	PINKY_TIP	PINKY_DIP	PINKY_PIP	PINKY_MCP	WRIST
X1	Y1	Z1	X2	Y2	Z2	X3	Y3	Z3	X4	Y4	Z4	X5	Y5	Z5	X6	Y6	Z6	X7	Y7	Z7	X8	Y8	Z8	X9	Y9	Z9	X10	Y10	Z10	X11	Y11	Z11	X12	Y12	Z12	X13	Y13	Z13	X14	Y14	Z14	X15	Y15	Z15	X16	Y16	Z16	X17	Y17	Z17	X18	Y18	Z18	X19	Y19	Z19	X20	Y20	Z20	X21	Y21	Z21
48	1.6	-0.06477349853515625	-0.09929989624023437	0.9610780029296875	-0.07641549682617188	-0.09151529693603516	0.9856480102539062	-0.08782009887695312	-0.08595899963378906	1.0160800170898439	-0.09475039672851562	-0.06193389892578125	1.0423900146484375	-0.04462760162353516	-0.05986389923095703	0.92972802734375	-0.0659126968383789	-0.061392501831054686	0.9362080078125	-0.08620110321044921	-0.06342060089111329	0.9487230224609375	-0.10185600280761718	-0.0665000991821289	0.9849140014648438	-0.04763370132446289	-0.035981399536132816	0.9177219848632813	-0.06836060333251953	-0.03681999969482422	0.927676025390625	-0.09032820129394531	-0.03912110137939453	0.9460269775390625	-0.10530999755859374	-0.04394449996948242	0.9838170166015625	-0.04488759994506836	-0.01640439987182617	0.9403759765625	-0.0649635009765625	-0.014381899833679199	0.9459730224609375	-0.08894529724121093	-0.015447199821472168	0.9579340209960937	-0.10611599731445312	-0.024644500732421876	0.9919000244140626	-0.05125180053710938	0.001303789973258972	0.962927001953125	-0.06873290252685547	0.004498539924621582	0.9683189697265625	-0.08576349639892578	0.0028845000267028807	0.9780440063476562	-0.09998940277099609	-0.0072707200050354005	1.0016400146484374	-0.11713099670410156	-0.038247299194335935	1.06443994140625
49	1.6333333333333333	-0.06261190032958984	-0.09625540161132813	0.961708984375	-0.07457050323486328	-0.08925180053710938	0.9860819702148438	-0.08631390380859374	-0.08432080078125	1.016489990234375	-0.09383879852294921	-0.06055459976196289	1.0426700439453125	-0.04354819869995117	-0.0579989013671875	0.9311060180664062	-0.06500360107421875	-0.05977690124511719	0.9371179809570312	-0.08543720245361328	-0.06206380081176758	0.949343994140625	-0.10094699859619141	-0.06542559814453125	0.9855130004882813	-0.04687160110473633	-0.034280200958251954	0.9191599731445312	-0.06769049835205078	-0.03530509948730469	0.9286510009765625	-0.08995349884033203	-0.03788159942626953	0.9466619873046875	-0.10504199981689454	-0.04294699859619141	0.984614013671875	-0.044907100677490236	-0.015090100288391113	0.9417470092773438	-0.06492870330810546	-0.01308180046081543	0.9466160278320312	-0.08905249786376954	-0.014275799751281739	0.9582960205078125	-0.10605699920654296	-0.02367919921875	0.9923839721679687	-0.05152989959716797	0.00232652997970581	0.9639600219726563	-0.06916230010986328	0.005533899784088135	0.9689210205078125	-0.08628140258789062	0.003908519983291626	0.9784609985351562	-0.10033499908447266	-0.006237659931182861	1.0021400146484376	-0.1169250030517578	-0.03729309844970703	1.065
50	1.6666666666666667	-0.05950740051269531	-0.0933115005493164	0.9625260009765625	-0.07226609802246094	-0.08723539733886719	0.986791015625	-0.08464990234375	-0.08296540069580079	1.0169299926757813	-0.09330229949951171	-0.05948260116577148	1.0428299560546874	-0.042047298431396485	-0.0562843017578125	0.9325819702148438	-0.06344160079956054	-0.05825849914550781	0.9380330200195313	-0.08415619659423829	-0.060869998931884765	0.9498300170898437	-0.10022699737548828	-0.0646510009765625	0.9858469848632813	-0.04538790130615234	-0.03261489868164062	0.9206599731445313	-0.06639360046386719	-0.03390700149536133	0.9295230102539063	-0.08891639709472657	-0.03681620025634766	0.947114013671875	-0.10441200256347656	-0.042145099639892575	0.984843017578125	-0.04437530136108398	-0.013673399925231934	0.9430910034179687	-0.064581298828125	-0.01184440040588379	0.9474580078125	-0.08881690216064453	-0.01329520034790039	0.95889501953125	-0.1057509994506836	-0.022844200134277345	0.9927930297851563	-0.05147079849243164	0.0035058600902557373	0.9647830200195312	-0.06917859649658203	0.006586520195007324	0.9695440063476563	-0.0864135971069336	0.0048281002044677735	0.9788189697265625	-0.10055000305175782	-0.005373429775238037	1.0024099731445313	-0.11683100128173828	-0.03687590026855469	1.0652900390625
51	1.7	-0.055841701507568356	-0.09052290344238281	0.9634710083007813	-0.06962480163574218	-0.08538200378417969	0.987406982421875	-0.08294699859619141	-0.08176619720458984	1.0172999877929687	-0.09287149810791015	-0.05866220092773437	1.0428499755859375	-0.04021699905395508	-0.05475450134277344	0.9338189697265625	-0.061707698822021484	-0.05698130035400391	0.9387269897460937	-0.0826521987915039	-0.0598750991821289	0.95014697265625	-0.09934110260009765	-0.0640728988647461	0.986281982421875	-0.0432057991027832	-0.03128120040893555	0.9223099975585938	-0.06444180297851562	-0.032766799926757816	0.9305880126953125	-0.0873646011352539	-0.035896800994873045	0.9475020141601562	-0.10361399841308594	-0.04154750061035156	0.9849400024414062	-0.04340359878540039	-0.012508299827575684	0.94431298828125	-0.06366949844360352	-0.010833000183105469	0.9482830200195312	-0.08809649658203125	-0.012518600463867187	0.959208984375	-0.10528399658203125	-0.022292800903320312	0.9928889770507813	-0.05113000106811524	0.004559899806976318	0.965593017578125	-0.06896589660644531	0.007510039806365967	0.9700230102539062	-0.0863230972290039	0.005568069934844971	0.97931201171875	-0.10053500366210938	-0.004739399909973145	1.0026300048828125	-0.11715599822998046	-0.03651779937744141	1.0653499755859375
52	1.7333333333333334	-0.053180400848388674	-0.08856919860839843	0.9642349853515625	-0.06767579650878906	-0.08410260009765624	0.987948974609375	-0.08158509826660157	-0.08094000244140626	1.01747998046875	-0.09220939636230469	-0.05822650146484375	1.04275	-0.039108600616455075	-0.05362369918823242	0.9342440185546875	-0.060576801300048826	-0.05601259994506836	0.939041015625	-0.08162259674072266	-0.059161201477050784	0.9502869873046875	-0.09827899932861328	-0.06373479843139648	0.9859639892578125	-0.04203499984741211	-0.030167600631713868	0.92297998046875	-0.06334619903564453	-0.031866500854492184	0.9310339965820312	-0.08636489868164063	-0.0352844009399414	0.9477520141601562	-0.10276699829101563	-0.04119079971313477	0.9850549926757812	-0.042701000213623046	-0.01157100009918213	0.9448880004882813	-0.0630802001953125	-0.010033200263977051	0.9486740112304688	-0.08757559967041016	-0.012013400077819824	0.9594580078125	-0.10482599639892579	-0.021921100616455077	0.9928779907226563	-0.050724300384521484	0.005214560031890869	0.966218017578125	-0.06858170318603515	0.00801280975341797	0.9703829956054687	-0.08590899658203124	0.005914030075073243	0.9794459838867188	-0.10037200164794922	-0.004399370193481445	1.002760009765625	-0.11701799774169921	-0.03647890090942383	1.065280029296875
53	1.7666666666666666	-0.05208089828491211	-0.087720703125	0.9644149780273438	-0.06672709655761719	-0.08350399780273438	0.987989013671875	-0.08072319793701171	-0.08065709686279297	1.0174299926757813	-0.09176399993896485	-0.058002799987792966	1.042510009765625	-0.0382484016418457	-0.05321419906616211	0.9345750122070312	-0.05964459991455078	-0.055703399658203125	0.9393369750976562	-0.08085669708251954	-0.05899390029907227	0.95039599609375	-0.09775620269775391	-0.06377429962158203	0.9859829711914062	-0.04096110153198242	-0.029765600204467772	0.9236619873046875	-0.062319198608398435	-0.031559900283813475	0.9313930053710937	-0.08560289764404297	-0.03512590026855469	0.9479110107421875	-0.10245600128173828	-0.041280899047851566	0.9850059814453125	-0.04220959854125977	-0.011218899726867676	0.9451179809570313	-0.06255329895019532	-0.009866809844970703	0.948718994140625	-0.08726699829101563	-0.011993000030517578	0.9593699951171875	-0.104697998046875	-0.021983499526977538	0.9928259887695312	-0.050529098510742186	0.005384210109710693	0.96622802734375	-0.0684209976196289	0.007996650218963623	0.97035400390625	-0.08595890045166016	0.0057933697700500485	0.979427978515625	-0.10026799774169921	-0.004485179901123047	1.0027999877929688	-0.11687699890136719	-0.0367422981262207	1.06531005859375
54	1.8	-0.051138900756835935	-0.08742489624023438	0.9645449829101562	-0.06602670288085938	-0.0834614028930664	0.9880469970703125	-0.08028230285644532	-0.08070429992675782	1.0174199829101562	-0.09163559722900391	-0.058156299591064456	1.0423299560546875	-0.03737120056152344	-0.05324300003051758	0.935198974609375	-0.05892990112304688	-0.05579949951171875	0.9395250244140625	-0.08020069885253907	-0.05913010025024414	0.9503880004882812	-0.0973927993774414	-0.06395800018310546	0.9858369750976562	-0.04010359954833984	-0.029860599517822266	0.9239739990234375	-0.061496700286865234	-0.03169260025024414	0.931718994140625	-0.08498419952392579	-0.03530939865112305	0.9479429931640625	-0.10237799835205078	-0.04151750183105469	0.9849400024414062	-0.041813400268554686	-0.01137399959564209	0.9451729736328125	-0.06220349884033203	-0.010074700355529785	0.9489010009765625	-0.08684999847412109	-0.012243300437927247	0.9594180297851562	-0.10443199920654297	-0.022218799591064452	0.9927369995117188	-0.050278301239013674	0.005143640041351319	0.9661279907226562	-0.06815460205078125	0.007648540019989014	0.970301025390625	-0.08567849731445312	0.005438210010528565	0.9792999877929688	-0.10021700286865234	-0.00469940996170044	1.0026400146484375	-0.11698000335693359	-0.037025901794433595	1.065050048828125
